<mxfile host="app.diagrams.net" modified="2023-07-27T06:33:15.706Z" agent="Mozilla/5.0 (Windows NT 10.0; Win64; x64) AppleWebKit/537.36 (KHTML, like Gecko) Chrome/113.0.0.0 Safari/537.36" version="21.3.7" etag="2VUmi59a9UCRkHEr3E2T" type="github">
  <diagram name="페이지-1" id="cum1rdiwvAK9aYkI4hln">
    <mxGraphModel>
      <root>
        <mxCell id="0" />
        <mxCell id="1" parent="0" />
      </root>
    </mxGraphModel>
  </diagram>
</mxfile>
